# Blender v2.78 (sub 0) OBJ File: 'tomb.blend'
# www.blender.org
mtllib tomb.mtl
o Tomb
v -0.200000 0.058834 0.983680
v -0.200000 2.266115 0.786944
v -0.200000 0.058834 -1.016320
v -0.200000 2.266115 -0.813056
v 0.200000 0.058834 0.983680
v 0.200000 2.266115 0.786944
v 0.200000 0.058834 -1.016320
v 0.200000 2.266115 -0.813056
v -0.200000 0.058834 -0.489120
v -0.200000 0.058834 0.010880
v -0.200000 0.058834 0.510880
v -0.200000 2.639921 0.408704
v -0.200000 2.788532 0.008704
v -0.200000 2.729920 -0.391296
v 0.200000 0.058834 0.510880
v 0.200000 0.058834 0.010880
v 0.200000 0.058834 -0.489120
v 0.200000 2.729920 -0.391296
v 0.200000 2.788532 0.008704
v 0.200000 2.639921 0.408704
vt 0.5401 0.1318
vt 0.3320 0.0508
vt 0.5401 0.0000
vt 0.4806 1.0000
vt 0.6907 0.5000
vt 0.6907 1.0000
vt 0.2573 0.6182
vt 0.0492 0.5492
vt 0.2573 0.5000
vt 0.5401 0.5000
vt 0.7500 0.0000
vt 0.7500 0.5000
vt 0.2159 0.0000
vt 0.2828 0.5000
vt 0.2159 0.5000
vt 0.3045 1.0000
vt 0.2573 0.5000
vt 0.3045 0.5000
vt 0.4148 0.5000
vt 0.4806 0.5000
vt 0.4148 1.0000
vt 0.3581 0.5000
vt 0.3581 1.0000
vt 0.0000 0.0000
vt 0.0745 0.5000
vt 0.0000 0.5000
vt 0.0745 0.0000
vt 0.1452 0.5000
vt 0.1452 0.0000
vt 0.0492 0.9492
vt 0.2573 0.8682
vt 0.2573 1.0000
vt 0.0055 0.8437
vt 0.2573 0.7432
vt 0.0140 0.6437
vt 0.3320 0.4508
vt 0.5401 0.3818
vt 0.5401 0.5000
vt 0.2968 0.3563
vt 0.5401 0.2568
vt 0.2883 0.1563
vt 0.2828 0.0000
vt 0.5401 0.0000
vt 0.2573 1.0000
vt 0.0000 0.7437
vt 0.2828 0.2563
vn -1.0000 -0.0000 0.0000
vn 0.0000 0.0917 -0.9958
vn 1.0000 0.0000 0.0000
vn 0.0000 0.0888 0.9961
vn 0.0000 -1.0000 0.0000
vn 0.0000 0.7113 0.7029
vn 0.0000 0.6728 -0.7398
vn 0.0000 0.9894 -0.1450
vn 0.0000 0.9374 0.3483
usemtl None
s off
f 9/1/1 4/2/1 3/3/1
f 4/4/2 7/5/2 3/6/2
f 15/7/3 6/8/3 5/9/3
f 6/10/4 1/11/4 5/12/4
f 15/13/5 1/14/5 11/15/5
f 12/16/6 6/17/6 20/18/6
f 4/4/7 18/19/7 8/20/7
f 14/21/8 19/22/8 18/19/8
f 13/23/9 20/18/9 19/22/9
f 7/24/5 9/25/5 3/26/5
f 17/27/5 10/28/5 9/25/5
f 16/29/5 11/15/5 10/28/5
f 8/30/3 17/31/3 7/32/3
f 18/33/3 16/34/3 17/31/3
f 16/34/3 20/35/3 15/7/3
f 2/36/1 11/37/1 1/38/1
f 12/39/1 10/40/1 11/37/1
f 10/40/1 14/41/1 9/1/1
f 15/13/5 5/42/5 1/14/5
f 7/24/5 17/27/5 9/25/5
f 17/27/5 16/29/5 10/28/5
f 16/29/5 15/13/5 11/15/5
f 9/1/1 14/41/1 4/2/1
f 4/4/2 8/20/2 7/5/2
f 15/7/3 20/35/3 6/8/3
f 6/10/4 2/43/4 1/11/4
f 12/16/6 2/44/6 6/17/6
f 4/4/7 14/21/7 18/19/7
f 14/21/8 13/23/8 19/22/8
f 13/23/9 12/16/9 20/18/9
f 8/30/3 18/33/3 17/31/3
f 18/33/3 19/45/3 16/34/3
f 16/34/3 19/45/3 20/35/3
f 2/36/1 12/39/1 11/37/1
f 12/39/1 13/46/1 10/40/1
f 10/40/1 13/46/1 14/41/1
